<svg xmlns="http://www.w3.org/2000/svg" width="1100" height="580" viewBox="0 0 1100 580">
<rect width="1100" height="580" fill="#fff"/><style>text{font-family:Arial,sans-serif;fill:#24333e}.title{font-size:26px;font-weight:700}.axis{font-size:16px;fill:#516675}.bar{fill:#58748a}.grid{stroke:#dce3e7;stroke-width:1}</style>
<text x="55" y="50" class="title">Checked-in retrieval fixture: Recall@5 and MRR</text>
<text x="55" y="78" class="axis">Four labeled questions: two Acme and two Globex</text>
<line x1="90" y1="470" x2="1030" y2="470" stroke="#647887" stroke-width="2"/><line x1="90" y1="150" x2="90" y2="470" stroke="#647887" stroke-width="2"/>
<line class="grid" x1="90" y1="390" x2="1030" y2="390"/><line class="grid" x1="90" y1="310" x2="1030" y2="310"/><line class="grid" x1="90" y1="230" x2="1030" y2="230"/><line class="grid" x1="90" y1="150" x2="1030" y2="150"/>
<text x="55" y="475" class="axis">0</text><text x="48" y="395" class="axis">0.25</text><text x="48" y="315" class="axis">0.50</text><text x="48" y="235" class="axis">0.75</text><text x="55" y="155" class="axis">1.00</text>
<rect class="bar" x="200" y="150" width="90" height="320"/><rect class="bar" x="315" y="150" width="90" height="320"/><rect class="bar" x="500" y="150" width="90" height="320"/><rect class="bar" x="615" y="150" width="90" height="320"/><rect class="bar" x="800" y="150" width="90" height="320"/><rect class="bar" x="915" y="150" width="90" height="320"/>
<text x="245" y="500" text-anchor="middle" class="axis">Vector</text><text x="370" y="500" text-anchor="middle" class="axis">Recall/MRR</text><text x="545" y="500" text-anchor="middle" class="axis">Graph</text><text x="670" y="500" text-anchor="middle" class="axis">Recall/MRR</text><text x="845" y="500" text-anchor="middle" class="axis">Hybrid RRF</text><text x="970" y="500" text-anchor="middle" class="axis">Recall/MRR</text>
<text x="245" y="140" text-anchor="middle" class="axis">1.00</text><text x="545" y="140" text-anchor="middle" class="axis">1.00</text><text x="845" y="140" text-anchor="middle" class="axis">1.00</text>
</svg>