<?xml version="1.0" encoding="UTF-8"?>
<svg xmlns="http://www.w3.org/2000/svg" width="1200" height="720" viewBox="0 0 1200 720">
  <rect width="1200" height="720" fill="#F8FAFC"/>
  <text x="70" y="70" fill="#0F172A" font-family="DejaVu Sans, Arial, sans-serif" font-size="34" font-weight="700">Checked-in corpus profile</text>
  <text x="70" y="108" fill="#475569" font-family="DejaVu Sans, Arial, sans-serif" font-size="20">All values come directly from enterprise_data/corpus.jsonl</text>
  <rect x="70" y="145" width="1060" height="500" rx="20" fill="#FFFFFF" stroke="#CBD5E1" stroke-width="2"/>
  <text x="150" y="205" fill="#334155" font-family="DejaVu Sans, Arial, sans-serif" font-size="22" font-weight="700">Tenant</text>
  <text x="430" y="205" fill="#334155" font-family="DejaVu Sans, Arial, sans-serif" font-size="22" font-weight="700">Documents</text>
  <text x="650" y="205" fill="#334155" font-family="DejaVu Sans, Arial, sans-serif" font-size="22" font-weight="700">Words</text>
  <text x="830" y="205" fill="#334155" font-family="DejaVu Sans, Arial, sans-serif" font-size="22" font-weight="700">Characters</text>
  <line x1="110" y1="230" x2="1090" y2="230" stroke="#E2E8F0"/>
  <text x="150" y="285" fill="#0F172A" font-family="DejaVu Sans, Arial, sans-serif" font-size="24">Acme</text>
  <rect x="430" y="258" width="210" height="38" rx="8" fill="#DBEAFE"/><text x="525" y="284" text-anchor="middle" fill="#1E3A8A" font-family="DejaVu Sans, Arial, sans-serif" font-size="22" font-weight="700">3</text>
  <rect x="650" y="258" width="120" height="38" rx="8" fill="#DCFCE7"/><text x="710" y="284" text-anchor="middle" fill="#166534" font-family="DejaVu Sans, Arial, sans-serif" font-size="22" font-weight="700">48</text>
  <rect x="830" y="258" width="150" height="38" rx="8" fill="#F3E8FF"/><text x="905" y="284" text-anchor="middle" fill="#6B21A8" font-family="DejaVu Sans, Arial, sans-serif" font-size="22" font-weight="700">368</text>
  <text x="150" y="355" fill="#0F172A" font-family="DejaVu Sans, Arial, sans-serif" font-size="24">Globex</text>
  <rect x="430" y="328" width="210" height="38" rx="8" fill="#DBEAFE"/><text x="525" y="354" text-anchor="middle" fill="#1E3A8A" font-family="DejaVu Sans, Arial, sans-serif" font-size="22" font-weight="700">2</text>
  <rect x="650" y="328" width="120" height="38" rx="8" fill="#DCFCE7"/><text x="710" y="354" text-anchor="middle" fill="#166534" font-family="DejaVu Sans, Arial, sans-serif" font-size="22" font-weight="700">29</text>
  <rect x="830" y="328" width="150" height="38" rx="8" fill="#F3E8FF"/><text x="905" y="354" text-anchor="middle" fill="#6B21A8" font-family="DejaVu Sans, Arial, sans-serif" font-size="22" font-weight="700">228</text>
  <line x1="110" y1="405" x2="1090" y2="405" stroke="#E2E8F0"/>
  <text x="150" y="465" fill="#334155" font-family="DejaVu Sans, Arial, sans-serif" font-size="22" font-weight="700">Total</text>
  <rect x="430" y="438" width="210" height="38" rx="8" fill="#E0E7FF"/><text x="525" y="464" text-anchor="middle" fill="#3730A3" font-family="DejaVu Sans, Arial, sans-serif" font-size="22" font-weight="700">5</text>
  <rect x="650" y="438" width="120" height="38" rx="8" fill="#DCFCE7"/><text x="710" y="464" text-anchor="middle" fill="#166534" font-family="DejaVu Sans, Arial, sans-serif" font-size="22" font-weight="700">77</text>
  <rect x="830" y="438" width="150" height="38" rx="8" fill="#F3E8FF"/><text x="905" y="464" text-anchor="middle" fill="#6B21A8" font-family="DejaVu Sans, Arial, sans-serif" font-size="22" font-weight="700">596</text>
  <text x="150" y="535" fill="#475569" font-family="DejaVu Sans, Arial, sans-serif" font-size="19">The fifth document is the intentional security test case.</text>
</svg>