<svg xmlns="http://www.w3.org/2000/svg" width="1350" height="820" viewBox="0 0 1350 820">
<rect width="1350" height="820" fill="#ffffff"/>
<text x="64" y="62" fill="#0f172a" font-family="DejaVu Sans,Arial" font-size="34" font-weight="700">Retrieval Stability Heatmap</text>
<text x="64" y="98" fill="#64748b" font-family="DejaVu Sans,Arial" font-size="17">Hybrid RRF score quality across retrieval depth and vector/graph weighting on the checked-in fixture</text>

<text x="300" y="150" fill="#475569" font-family="DejaVu Sans,Arial" font-size="13" font-weight="700">Vector weight</text>
<text x="300" y="182" text-anchor="middle" fill="#64748b" font-family="DejaVu Sans,Arial" font-size="12">0.0</text><text x="383" y="182" text-anchor="middle" fill="#64748b" font-family="DejaVu Sans,Arial" font-size="12">0.1</text><text x="466" y="182" text-anchor="middle" fill="#64748b" font-family="DejaVu Sans,Arial" font-size="12">0.2</text><text x="549" y="182" text-anchor="middle" fill="#64748b" font-family="DejaVu Sans,Arial" font-size="12">0.3</text><text x="632" y="182" text-anchor="middle" fill="#64748b" font-family="DejaVu Sans,Arial" font-size="12">0.4</text><text x="715" y="182" text-anchor="middle" fill="#64748b" font-family="DejaVu Sans,Arial" font-size="12">0.5</text><text x="798" y="182" text-anchor="middle" fill="#64748b" font-family="DejaVu Sans,Arial" font-size="12">0.6</text><text x="881" y="182" text-anchor="middle" fill="#64748b" font-family="DejaVu Sans,Arial" font-size="12">0.7</text><text x="964" y="182" text-anchor="middle" fill="#64748b" font-family="DejaVu Sans,Arial" font-size="12">0.8</text><text x="1047" y="182" text-anchor="middle" fill="#64748b" font-family="DejaVu Sans,Arial" font-size="12">0.9</text><text x="1130" y="182" text-anchor="middle" fill="#64748b" font-family="DejaVu Sans,Arial" font-size="12">1.0</text>

<text x="190" y="256" fill="#334155" font-family="DejaVu Sans,Arial" font-size="14" font-weight="700">K=1</text><rect x="250" y="210" width="76" height="62" rx="9" fill="#d1fae5" stroke="#86efac"/><text x="288" y="248" text-anchor="middle" fill="#166534" font-family="DejaVu Sans,Arial" font-size="14" font-weight="700">1.00</text><rect x="333" y="210" width="76" height="62" rx="9" fill="#d1fae5" stroke="#86efac"/><text x="371" y="248" text-anchor="middle" fill="#166534" font-family="DejaVu Sans,Arial" font-size="14" font-weight="700">1.00</text><rect x="416" y="210" width="76" height="62" rx="9" fill="#d1fae5" stroke="#86efac"/><text x="454" y="248" text-anchor="middle" fill="#166534" font-family="DejaVu Sans,Arial" font-size="14" font-weight="700">1.00</text><rect x="499" y="210" width="76" height="62" rx="9" fill="#d1fae5" stroke="#86efac"/><text x="537" y="248" text-anchor="middle" fill="#166534" font-family="DejaVu Sans,Arial" font-size="14" font-weight="700">1.00</text><rect x="582" y="210" width="76" height="62" rx="9" fill="#d1fae5" stroke="#86efac"/><text x="620" y="248" text-anchor="middle" fill="#166534" font-family="DejaVu Sans,Arial" font-size="14" font-weight="700">1.00</text><rect x="665" y="210" width="76" height="62" rx="9" fill="#d1fae5" stroke="#86efac"/><text x="703" y="248" text-anchor="middle" fill="#166534" font-family="DejaVu Sans,Arial" font-size="14" font-weight="700">1.00</text><rect x="748" y="210" width="76" height="62" rx="9" fill="#d1fae5" stroke="#86efac"/><text x="786" y="248" text-anchor="middle" fill="#166534" font-family="DejaVu Sans,Arial" font-size="14" font-weight="700">1.00</text><rect x="831" y="210" width="76" height="62" rx="9" fill="#d1fae5" stroke="#86efac"/><text x="869" y="248" text-anchor="middle" fill="#166534" font-family="DejaVu Sans,Arial" font-size="14" font-weight="700">1.00</text><rect x="914" y="210" width="76" height="62" rx="9" fill="#d1fae5" stroke="#86efac"/><text x="952" y="248" text-anchor="middle" fill="#166534" font-family="DejaVu Sans,Arial" font-size="14" font-weight="700">1.00</text><rect x="997" y="210" width="76" height="62" rx="9" fill="#d1fae5" stroke="#86efac"/><text x="1035" y="248" text-anchor="middle" fill="#166534" font-family="DejaVu Sans,Arial" font-size="14" font-weight="700">1.00</text><rect x="1080" y="210" width="76" height="62" rx="9" fill="#d1fae5" stroke="#86efac"/><text x="1118" y="248" text-anchor="middle" fill="#166534" font-family="DejaVu Sans,Arial" font-size="14" font-weight="700">1.00</text><text x="190" y="338" fill="#334155" font-family="DejaVu Sans,Arial" font-size="14" font-weight="700">K=2</text><rect x="250" y="292" width="76" height="62" rx="9" fill="#d1fae5" stroke="#86efac"/><text x="288" y="330" text-anchor="middle" fill="#166534" font-family="DejaVu Sans,Arial" font-size="14" font-weight="700">1.00</text><rect x="333" y="292" width="76" height="62" rx="9" fill="#d1fae5" stroke="#86efac"/><text x="371" y="330" text-anchor="middle" fill="#166534" font-family="DejaVu Sans,Arial" font-size="14" font-weight="700">1.00</text><rect x="416" y="292" width="76" height="62" rx="9" fill="#d1fae5" stroke="#86efac"/><text x="454" y="330" text-anchor="middle" fill="#166534" font-family="DejaVu Sans,Arial" font-size="14" font-weight="700">1.00</text><rect x="499" y="292" width="76" height="62" rx="9" fill="#d1fae5" stroke="#86efac"/><text x="537" y="330" text-anchor="middle" fill="#166534" font-family="DejaVu Sans,Arial" font-size="14" font-weight="700">1.00</text><rect x="582" y="292" width="76" height="62" rx="9" fill="#d1fae5" stroke="#86efac"/><text x="620" y="330" text-anchor="middle" fill="#166534" font-family="DejaVu Sans,Arial" font-size="14" font-weight="700">1.00</text><rect x="665" y="292" width="76" height="62" rx="9" fill="#d1fae5" stroke="#86efac"/><text x="703" y="330" text-anchor="middle" fill="#166534" font-family="DejaVu Sans,Arial" font-size="14" font-weight="700">1.00</text><rect x="748" y="292" width="76" height="62" rx="9" fill="#d1fae5" stroke="#86efac"/><text x="786" y="330" text-anchor="middle" fill="#166534" font-family="DejaVu Sans,Arial" font-size="14" font-weight="700">1.00</text><rect x="831" y="292" width="76" height="62" rx="9" fill="#d1fae5" stroke="#86efac"/><text x="869" y="330" text-anchor="middle" fill="#166534" font-family="DejaVu Sans,Arial" font-size="14" font-weight="700">1.00</text><rect x="914" y="292" width="76" height="62" rx="9" fill="#d1fae5" stroke="#86efac"/><text x="952" y="330" text-anchor="middle" fill="#166534" font-family="DejaVu Sans,Arial" font-size="14" font-weight="700">1.00</text><rect x="997" y="292" width="76" height="62" rx="9" fill="#d1fae5" stroke="#86efac"/><text x="1035" y="330" text-anchor="middle" fill="#166534" font-family="DejaVu Sans,Arial" font-size="14" font-weight="700">1.00</text><rect x="1080" y="292" width="76" height="62" rx="9" fill="#d1fae5" stroke="#86efac"/><text x="1118" y="330" text-anchor="middle" fill="#166534" font-family="DejaVu Sans,Arial" font-size="14" font-weight="700">1.00</text><text x="190" y="420" fill="#334155" font-family="DejaVu Sans,Arial" font-size="14" font-weight="700">K=3</text><rect x="250" y="374" width="76" height="62" rx="9" fill="#d1fae5" stroke="#86efac"/><text x="288" y="412" text-anchor="middle" fill="#166534" font-family="DejaVu Sans,Arial" font-size="14" font-weight="700">1.00</text><rect x="333" y="374" width="76" height="62" rx="9" fill="#d1fae5" stroke="#86efac"/><text x="371" y="412" text-anchor="middle" fill="#166534" font-family="DejaVu Sans,Arial" font-size="14" font-weight="700">1.00</text><rect x="416" y="374" width="76" height="62" rx="9" fill="#d1fae5" stroke="#86efac"/><text x="454" y="412" text-anchor="middle" fill="#166534" font-family="DejaVu Sans,Arial" font-size="14" font-weight="700">1.00</text><rect x="499" y="374" width="76" height="62" rx="9" fill="#d1fae5" stroke="#86efac"/><text x="537" y="412" text-anchor="middle" fill="#166534" font-family="DejaVu Sans,Arial" font-size="14" font-weight="700">1.00</text><rect x="582" y="374" width="76" height="62" rx="9" fill="#d1fae5" stroke="#86efac"/><text x="620" y="412" text-anchor="middle" fill="#166534" font-family="DejaVu Sans,Arial" font-size="14" font-weight="700">1.00</text><rect x="665" y="374" width="76" height="62" rx="9" fill="#d1fae5" stroke="#86efac"/><text x="703" y="412" text-anchor="middle" fill="#166534" font-family="DejaVu Sans,Arial" font-size="14" font-weight="700">1.00</text><rect x="748" y="374" width="76" height="62" rx="9" fill="#d1fae5" stroke="#86efac"/><text x="786" y="412" text-anchor="middle" fill="#166534" font-family="DejaVu Sans,Arial" font-size="14" font-weight="700">1.00</text><rect x="831" y="374" width="76" height="62" rx="9" fill="#d1fae5" stroke="#86efac"/><text x="869" y="412" text-anchor="middle" fill="#166534" font-family="DejaVu Sans,Arial" font-size="14" font-weight="700">1.00</text><rect x="914" y="374" width="76" height="62" rx="9" fill="#d1fae5" stroke="#86efac"/><text x="952" y="412" text-anchor="middle" fill="#166534" font-family="DejaVu Sans,Arial" font-size="14" font-weight="700">1.00</text><rect x="997" y="374" width="76" height="62" rx="9" fill="#d1fae5" stroke="#86efac"/><text x="1035" y="412" text-anchor="middle" fill="#166534" font-family="DejaVu Sans,Arial" font-size="14" font-weight="700">1.00</text><rect x="1080" y="374" width="76" height="62" rx="9" fill="#d1fae5" stroke="#86efac"/><text x="1118" y="412" text-anchor="middle" fill="#166534" font-family="DejaVu Sans,Arial" font-size="14" font-weight="700">1.00</text><text x="190" y="502" fill="#334155" font-family="DejaVu Sans,Arial" font-size="14" font-weight="700">K=4</text><rect x="250" y="456" width="76" height="62" rx="9" fill="#d1fae5" stroke="#86efac"/><text x="288" y="494" text-anchor="middle" fill="#166534" font-family="DejaVu Sans,Arial" font-size="14" font-weight="700">1.00</text><rect x="333" y="456" width="76" height="62" rx="9" fill="#d1fae5" stroke="#86efac"/><text x="371" y="494" text-anchor="middle" fill="#166534" font-family="DejaVu Sans,Arial" font-size="14" font-weight="700">1.00</text><rect x="416" y="456" width="76" height="62" rx="9" fill="#d1fae5" stroke="#86efac"/><text x="454" y="494" text-anchor="middle" fill="#166534" font-family="DejaVu Sans,Arial" font-size="14" font-weight="700">1.00</text><rect x="499" y="456" width="76" height="62" rx="9" fill="#d1fae5" stroke="#86efac"/><text x="537" y="494" text-anchor="middle" fill="#166534" font-family="DejaVu Sans,Arial" font-size="14" font-weight="700">1.00</text><rect x="582" y="456" width="76" height="62" rx="9" fill="#d1fae5" stroke="#86efac"/><text x="620" y="494" text-anchor="middle" fill="#166534" font-family="DejaVu Sans,Arial" font-size="14" font-weight="700">1.00</text><rect x="665" y="456" width="76" height="62" rx="9" fill="#d1fae5" stroke="#86efac"/><text x="703" y="494" text-anchor="middle" fill="#166534" font-family="DejaVu Sans,Arial" font-size="14" font-weight="700">1.00</text><rect x="748" y="456" width="76" height="62" rx="9" fill="#d1fae5" stroke="#86efac"/><text x="786" y="494" text-anchor="middle" fill="#166534" font-family="DejaVu Sans,Arial" font-size="14" font-weight="700">1.00</text><rect x="831" y="456" width="76" height="62" rx="9" fill="#d1fae5" stroke="#86efac"/><text x="869" y="494" text-anchor="middle" fill="#166534" font-family="DejaVu Sans,Arial" font-size="14" font-weight="700">1.00</text><rect x="914" y="456" width="76" height="62" rx="9" fill="#d1fae5" stroke="#86efac"/><text x="952" y="494" text-anchor="middle" fill="#166534" font-family="DejaVu Sans,Arial" font-size="14" font-weight="700">1.00</text><rect x="997" y="456" width="76" height="62" rx="9" fill="#d1fae5" stroke="#86efac"/><text x="1035" y="494" text-anchor="middle" fill="#166534" font-family="DejaVu Sans,Arial" font-size="14" font-weight="700">1.00</text><rect x="1080" y="456" width="76" height="62" rx="9" fill="#d1fae5" stroke="#86efac"/><text x="1118" y="494" text-anchor="middle" fill="#166534" font-family="DejaVu Sans,Arial" font-size="14" font-weight="700">1.00</text><text x="190" y="584" fill="#334155" font-family="DejaVu Sans,Arial" font-size="14" font-weight="700">K=5</text><rect x="250" y="538" width="76" height="62" rx="9" fill="#d1fae5" stroke="#86efac"/><text x="288" y="576" text-anchor="middle" fill="#166534" font-family="DejaVu Sans,Arial" font-size="14" font-weight="700">1.00</text><rect x="333" y="538" width="76" height="62" rx="9" fill="#d1fae5" stroke="#86efac"/><text x="371" y="576" text-anchor="middle" fill="#166534" font-family="DejaVu Sans,Arial" font-size="14" font-weight="700">1.00</text><rect x="416" y="538" width="76" height="62" rx="9" fill="#d1fae5" stroke="#86efac"/><text x="454" y="576" text-anchor="middle" fill="#166534" font-family="DejaVu Sans,Arial" font-size="14" font-weight="700">1.00</text><rect x="499" y="538" width="76" height="62" rx="9" fill="#d1fae5" stroke="#86efac"/><text x="537" y="576" text-anchor="middle" fill="#166534" font-family="DejaVu Sans,Arial" font-size="14" font-weight="700">1.00</text><rect x="582" y="538" width="76" height="62" rx="9" fill="#d1fae5" stroke="#86efac"/><text x="620" y="576" text-anchor="middle" fill="#166534" font-family="DejaVu Sans,Arial" font-size="14" font-weight="700">1.00</text><rect x="665" y="538" width="76" height="62" rx="9" fill="#d1fae5" stroke="#86efac"/><text x="703" y="576" text-anchor="middle" fill="#166534" font-family="DejaVu Sans,Arial" font-size="14" font-weight="700">1.00</text><rect x="748" y="538" width="76" height="62" rx="9" fill="#d1fae5" stroke="#86efac"/><text x="786" y="576" text-anchor="middle" fill="#166534" font-family="DejaVu Sans,Arial" font-size="14" font-weight="700">1.00</text><rect x="831" y="538" width="76" height="62" rx="9" fill="#d1fae5" stroke="#86efac"/><text x="869" y="576" text-anchor="middle" fill="#166534" font-family="DejaVu Sans,Arial" font-size="14" font-weight="700">1.00</text><rect x="914" y="538" width="76" height="62" rx="9" fill="#d1fae5" stroke="#86efac"/><text x="952" y="576" text-anchor="middle" fill="#166534" font-family="DejaVu Sans,Arial" font-size="14" font-weight="700">1.00</text><rect x="997" y="538" width="76" height="62" rx="9" fill="#d1fae5" stroke="#86efac"/><text x="1035" y="576" text-anchor="middle" fill="#166534" font-family="DejaVu Sans,Arial" font-size="14" font-weight="700">1.00</text><rect x="1080" y="538" width="76" height="62" rx="9" fill="#d1fae5" stroke="#86efac"/><text x="1118" y="576" text-anchor="middle" fill="#166534" font-family="DejaVu Sans,Arial" font-size="14" font-weight="700">1.00</text>

<rect x="70" y="650" width="1210" height="90" rx="18" fill="#f8fafc" stroke="#d5deea"/>
<text x="96" y="684" fill="#334155" font-family="DejaVu Sans,Arial" font-size="13">Interpretation:</text>
<text x="96" y="710" fill="#64748b" font-family="DejaVu Sans,Arial" font-size="13">Every tested combination retained the expected document at rank 1. This is a regression/stability result for a five-document fixture, not a production tuning result.</text>
</svg>