<?xml version="1.0" encoding="UTF-8"?>
<svg xmlns="http://www.w3.org/2000/svg" width="1200" height="720" viewBox="0 0 1200 720">
  <rect width="1200" height="720" fill="#FFFFFF"/>
  <text x="70" y="68" fill="#111827" font-family="DejaVu Sans, Arial, sans-serif" font-size="34" font-weight="700">Retrieval depth experiment</text>
  <text x="70" y="104" fill="#475569" font-family="DejaVu Sans, Arial, sans-serif" font-size="20">Four questions • K = 1 to 5 • expected document stays at rank 1</text>
  <g stroke="#E5E7EB">
    <line x1="150" y1="230" x2="1080" y2="230"/>
    <line x1="150" y1="320" x2="1080" y2="320"/>
    <line x1="150" y1="410" x2="1080" y2="410"/>
  </g>
  <g fill="#64748B" font-family="DejaVu Sans, Arial, sans-serif" font-size="18">
    <text x="115" y="235">1.0</text><text x="115" y="325">0.5</text><text x="115" y="415">0.0</text>
    <text x="190" y="465">K=1</text><text x="390" y="465">K=2</text><text x="590" y="465">K=3</text><text x="790" y="465">K=4</text><text x="990" y="465">K=5</text>
  </g>
  <polyline points="210,230 410,230 610,230 810,230 1010,230" fill="none" stroke="#2563EB" stroke-width="7"/>
  <polyline points="210,238 410,238 610,238 810,238 1010,238" fill="none" stroke="#10B981" stroke-width="7"/>
  <polyline points="210,246 410,246 610,246 810,246 1010,246" fill="none" stroke="#7C3AED" stroke-width="7"/>
  <g fill="#111827" font-family="DejaVu Sans, Arial, sans-serif" font-size="20">
    <rect x="150" y="520" width="900" height="120" rx="16" fill="#F8FAFC" stroke="#E2E8F0"/>
    <text x="185" y="555">Vector Recall@K = 1.00 and MRR = 1.00 for every tested K.</text>
    <text x="185" y="590">Graph Recall@K = 1.00 and MRR = 1.00 for every tested K.</text>
    <text x="185" y="625">Hybrid Recall@K = 1.00 and MRR = 1.00 for every tested K.</text>
  </g>
  <g font-family="DejaVu Sans, Arial, sans-serif" font-size="18">
    <text x="830" y="565" fill="#2563EB">Vector</text>
    <text x="830" y="595" fill="#10B981">Graph</text>
    <text x="830" y="625" fill="#7C3AED">Hybrid RRF</text>
  </g>
</svg>